<svg xmlns="http://www.w3.org/2000/svg" version="1.1" xmlns:xlink="http://www.w3.org/1999/xlink" xmlns:svgjs="http://svgjs.dev/svgjs" width="1000" height="171" viewBox="0 0 1000 171"><g transform="matrix(1,0,0,1,-0.6060605706843489,-0.25059205611040625)"><svg viewBox="0 0 396 68" data-background-color="#ffffff" preserveAspectRatio="xMidYMid meet" height="171" width="1000" xmlns="http://www.w3.org/2000/svg" xmlns:xlink="http://www.w3.org/1999/xlink"><g id="tight-bounds" transform="matrix(1,0,0,1,0.24000001400901283,0.09965303285235905)"><svg viewBox="0 0 395.52 67.80069632495164" height="67.80069632495164" width="395.52"><g><svg viewBox="0 0 395.52 67.80069632495164" height="67.80069632495164" width="395.52"><g><svg viewBox="0 0 395.52 67.80069632495164" height="67.80069632495164" width="395.52"><g><svg viewBox="0 0 395.52 67.80069632495164" height="67.80069632495164" width="395.52"><g><svg viewBox="0 0 395.52 67.80069632495164" height="67.80069632495164" width="395.52"><g transform="matrix(1,0,0,1,0,0)"><svg width="395.52" viewBox="1.6100000143051147 -34.029998779296875 201.94000244140625 34.619998931884766" height="67.80069632495164" data-palette-color="#f7d65a"><path d="M15.19 0L2 0 1.86-2.64 4.98-3.47Q4.98-3.76 5-4.64 5.03-5.52 5.05-6.69 5.08-7.86 5.1-9.03 5.13-10.21 5.13-11.13L5.13-11.13 5.13-17.58Q5.13-19.53 5.08-21.19 5.03-22.85 4.93-23.93 4.83-25 4.74-25.2L4.74-25.2 1.61-26.03 1.76-28.66 15.04-28.66Q20.95-28.66 23.75-26.86 26.56-25.05 26.56-21.09L26.56-21.09Q26.56-18.7 25.05-16.82 23.54-14.94 20.9-13.87 18.26-12.79 14.84-12.79L14.84-12.79 11.47-12.79 11.47-15.82 13.67-15.82Q15.92-15.82 17.33-17.33 18.75-18.85 18.75-21.24L18.75-21.24Q18.75-23.44 17.58-24.58 16.41-25.73 14.16-25.73L14.16-25.73 12.6-25.73Q12.6-25.59 12.57-24.78 12.55-23.97 12.52-22.78 12.5-21.58 12.5-20.26 12.5-18.95 12.5-17.82L12.5-17.82 12.5-11.13Q12.5-10.11 12.52-8.59 12.55-7.08 12.6-5.66 12.65-4.25 12.65-3.47L12.65-3.47 15.33-2.64 15.19 0ZM28.27 0.59L28.27 0.59Q25.34 0.59 23.05-0.32 20.75-1.22 19.04-3.03 17.33-4.83 16.11-7.57L16.11-7.57 13.57-13.57 19.53-14.99 25.54-6.79Q26.42-5.62 27.37-4.69 28.32-3.76 29.39-3.13 30.47-2.49 31.69-2.15L31.69-2.15 31.64 0.29Q30.76 0.49 29.93 0.54 29.1 0.59 28.27 0.59ZM40.18 0.39L40.18 0.39Q37.84 0.39 36.18-0.61 34.52-1.61 33.64-3.05 32.76-4.49 32.76-5.71L32.76-5.71Q32.76-7.57 33.86-8.79 34.96-10.01 37.25-10.64L37.25-10.64 44.97-12.79 44.97-14.26Q44.97-15.28 44.36-16.16 43.75-17.04 42.72-17.63 41.7-18.21 40.57-18.21L40.57-18.21Q39.89-18.21 39.62-17.87 39.35-17.53 39.26-16.65L39.26-16.65 38.96-13.33Q36.33-12.84 34.67-13.53 33.01-14.21 33.01-15.82L33.01-15.82Q33.01-16.85 34.06-17.9 35.1-18.95 36.67-19.82 38.23-20.7 39.82-21.31 41.4-21.92 42.43-22.02L42.43-22.02Q47.02-22.02 49.68-20.02 52.34-18.02 52.34-14.55L52.34-14.55 52.19-8.25Q52.19-6.74 52.29-6.01 52.39-5.27 52.59-4.79L52.59-4.79 55.86-4.2 55.86-1.95 52.39-0.44Q51.46 0 50.66 0.2 49.85 0.39 49.07 0.39L49.07 0.39Q47.02 0.39 46.19-1.66L46.19-1.66 45.21-4 46.34-3.76Q44.87-1.86 43.26-0.73 41.65 0.39 40.18 0.39ZM43.06-4.49L43.06-4.49Q43.6-4.49 44.11-4.69 44.63-4.88 45.07-5.27L45.07-5.27 45.07-9.91 42.48-9.57Q41.26-9.47 40.72-8.89 40.18-8.3 40.18-7.37L40.18-7.37Q40.18-6.3 41.06-5.4 41.94-4.49 43.06-4.49ZM73.29-5.91L74.65-4.49Q73.97-2.2 71.94-0.85 69.92 0.49 67.33 0.49L67.33 0.49Q63.76 0.49 61.52-1.51 59.27-3.52 59.27-7.62L59.27-7.62 59.42-18.26 56-18.26 56-19.92 65.13-26.9 66.74-26.9 66.65-19.58 66.55-8.15Q66.55-6.3 67.52-5.52 68.5-4.74 70.11-4.74L70.11-4.74Q70.94-4.74 71.8-5.05 72.65-5.37 73.29-5.91L73.29-5.91ZM73.33-18.26L64.25-18.26 64.25-21.58 73.33-21.58 73.33-18.26ZM86.66 0.39L86.66 0.39Q83.39 0.39 80.88-1.07 78.36-2.54 76.95-5.03 75.53-7.52 75.53-10.5L75.53-10.5Q75.53-13.87 77.14-16.46 78.75-19.04 81.34-20.53 83.93-22.02 86.86-22.02L86.86-22.02Q91.25-22.02 93.72-19.36 96.18-16.7 96.18-12.4L96.18-12.4 96.18-11.13 81.93-11.13 81.93-13.82 90.86-13.82 89.98-12.45 89.98-14.36Q89.98-16.5 89.08-17.77 88.18-19.04 86.47-19.04L86.47-19.04Q85.34-19.04 84.47-18.41 83.59-17.77 83.07-16.48 82.56-15.19 82.56-13.23L82.56-13.23 82.56-12.06Q82.56-8.84 84.37-6.79 86.17-4.74 89.25-4.74L89.25-4.74Q90.91-4.74 92.28-5.35 93.64-5.96 94.91-7.37L94.91-7.37 96.48-5.91Q95.11-2.83 92.5-1.22 89.89 0.39 86.66 0.39ZM120.11-23.54L122.45-19.09 114.15 0.15 111.37 0.15 100.14-25.2 97.55-26.03 97.7-28.66 110.93-28.66 111.07-26.03 108.68-25.2 116.3-7.03 113.52-7.03 120.11-23.54ZM132.46 0.15L129.68 0.15 118.2-25.2 115.76-26.03 115.91-28.66 129.53-28.66 129.68-26.03 126.55-25.2 134.32-7.03 131.97-7.03 138.91-25.2 135.59-26.03 135.73-28.66 146.08-28.66 146.23-26.03 143.69-25.2 132.46 0.15ZM159.51 0L145.64 0 145.5-2.49 148.72-3.27Q148.77-3.47 148.82-4.25 148.86-5.03 148.91-6.05 148.96-7.08 148.96-8.06L148.96-8.06 149.01-11.72Q149.01-13.13 148.94-14.14 148.86-15.14 148.62-16.5L148.62-16.5 145.35-17.19 145.35-19.53 154.97-21.92 156.53-21.04Q156.38-19.43 156.31-17.82 156.24-16.21 156.24-14.21L156.24-14.21 156.24-7.96Q156.24-6.59 156.31-5.13 156.38-3.66 156.43-3.27L156.43-3.27 159.66-2.49 159.51 0ZM152.67-25.34L152.67-25.34Q150.43-25.34 149.21-26.66 147.99-27.98 147.99-29.69L147.99-29.69Q147.99-31.4 149.21-32.71 150.43-34.03 152.67-34.03L152.67-34.03Q154.92-34.03 156.09-32.71 157.26-31.4 157.26-29.69L157.26-29.69Q157.26-27.98 156.09-26.66 154.92-25.34 152.67-25.34ZM169.66 0.39L169.66 0.39Q167.56 0.39 165.49-0.07 163.41-0.54 162-1.32L162-1.32 161.75-7.23 165.17-7.23 166.2-3.71Q168.15-2.64 170.05-2.64L170.05-2.64Q171.47-2.64 172.18-3.17 172.89-3.71 172.89-4.59L172.89-4.59Q172.89-5.66 172.06-6.35 171.23-7.03 168.59-8.01L168.59-8.01Q164.98-9.28 163.56-10.89 162.14-12.5 162.14-14.89L162.14-14.89Q162.14-17.04 163.44-18.63 164.73-20.21 167.03-21.12 169.32-22.02 172.35-22.02L172.35-22.02Q174.01-22.02 175.67-21.7 177.33-21.39 178.4-20.9L178.4-20.9 178.99-15.04 175.62-15.04 174.55-18.51Q174.06-18.85 173.35-18.99 172.64-19.14 172.06-19.14L172.06-19.14Q170.69-19.14 169.83-18.55 168.98-17.97 168.98-16.99L168.98-16.99Q168.98-15.92 170.05-15.19 171.13-14.45 173.96-13.33L173.96-13.33Q177.18-12.06 178.55-10.52 179.92-8.98 179.92-6.74L179.92-6.74Q179.92-3.52 177.11-1.56 174.3 0.39 169.66 0.39ZM193.73 0.39L193.73 0.39Q190.46 0.39 187.95-1.07 185.43-2.54 184.02-5.03 182.6-7.52 182.6-10.5L182.6-10.5Q182.6-13.87 184.21-16.46 185.82-19.04 188.41-20.53 191-22.02 193.93-22.02L193.93-22.02Q198.32-22.02 200.79-19.36 203.25-16.7 203.25-12.4L203.25-12.4 203.25-11.13 189-11.13 189-13.82 197.93-13.82 197.05-12.45 197.05-14.36Q197.05-16.5 196.15-17.77 195.25-19.04 193.54-19.04L193.54-19.04Q192.41-19.04 191.54-18.41 190.66-17.77 190.14-16.48 189.63-15.19 189.63-13.23L189.63-13.23 189.63-12.06Q189.63-8.84 191.44-6.79 193.24-4.74 196.32-4.74L196.32-4.74Q197.98-4.74 199.35-5.35 200.71-5.96 201.98-7.37L201.98-7.37 203.55-5.91Q202.18-2.83 199.57-1.22 196.96 0.39 193.73 0.39Z" opacity="1" transform="matrix(1,0,0,1,0,0)" fill="#f7d65a" class="undefined-text-0" data-fill-palette-color="primary" id="text-0"></path></svg></g></svg></g></svg></g></svg></g></svg></g><defs></defs></svg><rect width="395.52" height="67.80069632495164" fill="none" stroke="none" visibility="hidden"></rect></g></svg></g></svg>